# xmcd CD database file
#
# Track frame offsets:
#	150
#	18534
#	47547
#	80485
#	102249
#	120958
#	139303
#	157263
#	179486
#	185826
#	220717
#	245009
#
# Disc length: 3411 seconds
#
# Revision: 0
# Processed by: cddbd v1.4PL0 Copyright (c) Steve Scherf et al.
# Submitted via: CDex 1.50Beta7
#
DISCID=aa0d510c
DTITLE=Eric Burdon and The New Animals - The Official Live Bootleg 2000
DYEAR=1900
DGENRE=Blues
TTITLE0=Inside Looking Out
TTITLE1=Dont Let Me Be Misunderstood
TTITLE2=Monterey
TTITLE3=Lawdy Miss Clawdy
TTITLE4=When I Was Young
TTITLE5=Hey Gyp
TTITLE6=See See Rider
TTITLE7=San Francisco Nights
TTITLE8=Star Spangled Banner
TTITLE9=Sky Pilot
TTITLE10=House Of The Rising Sun
TTITLE11=You Got Me Floatin'
EXTD=
EXTT0=
EXTT1=
EXTT2=
EXTT3=
EXTT4=
EXTT5=
EXTT6=
EXTT7=
EXTT8=
EXTT9=
EXTT10=
EXTT11=
PLAYORDER=
